<?xml version="1.0" encoding="UTF-8" standalone="no"?>
<svg
   fill="none"
   viewBox="0 0 300.54053 302.21622"
   class="ng-star-inserted"
   version="1.1"
   id="svg17"
   width="300.54053"
   height="302.21622"
   xmlns="http://www.w3.org/2000/svg"
   xmlns:svg="http://www.w3.org/2000/svg">
  <path
     d="m 299.87499,263.78962 c 0,20.67758 -16.67392,37.37062 -37.32742,37.37062 H 37.328909 C 16.673569,301.16024 0,284.4672 0,263.78962 V 38.313892 C 0,17.634965 16.797984,0.942383 37.328909,0.942383 H 262.54757 c 20.6535,0 37.32742,16.692582 37.32742,37.371509 z"
     fill="#2e3349"
     id="path14"
     style="stroke-width:2.40463" />
  <path
     d="m 0,151.426 v 112.36362 c 0,20.67758 16.797984,37.37062 37.453222,37.37062 H 262.54757 C 283.20107,301.16024 300,284.4672 300,263.78962 V 151.426 Z"
     fill="url(#paint0_linear3798)"
     id="path15"
     style="fill:url(#paint0_linear3798);stroke-width:2.40463" />
  <path
     opacity="0.3"
     d="m 264.29331,261.04819 c 0,4.6074 -3.11167,8.34652 -6.96882,8.34652 h -38.82187 c -3.85732,0 -6.96796,-3.73912 -6.96796,-8.34652 V 41.054009 c 0,-4.609016 3.11064,-8.346336 6.96796,-8.346336 h 38.82187 c 3.85715,0 6.96882,3.73732 6.96882,8.346336 z"
     fill="#ffffff"
     id="path16"
     style="stroke-width:2.40463" />
  <defs
     id="defs17">
    <linearGradient
       x1="62.376801"
       y1="36.394901"
       x2="62.376801"
       y2="156.83701"
       gradientUnits="userSpaceOnUse"
       id="paint0_linear3798"
       gradientTransform="matrix(2.4046556,0,0,2.4046556,0,-1.3237234)">
      <stop
         stop-color="#AE61FF"
         id="stop16" />
      <stop
         offset="1"
         stop-color="#13EFD8"
         id="stop17" />
    </linearGradient>
  </defs>
</svg>
